<?xml version="1.0" standalone="no"?>
<!DOCTYPE svg PUBLIC "-//W3C//DTD SVG 20010904//EN"
 "http://www.w3.org/TR/2001/REC-SVG-20010904/DTD/svg10.dtd">
<svg version="1.0" xmlns="http://www.w3.org/2000/svg"
 width="1663.000000pt" height="1937.000000pt" viewBox="0 0 1663.000000 1937.000000"
 preserveAspectRatio="xMidYMid meet">

<g transform="translate(0.000000,1937.000000) scale(0.100000,-0.100000)"
fill="#10b981" stroke="none">
<path d="M6122 12686 c-11 -18 -23 -44 -27 -57 -4 -13 -38 -87 -75 -164 -37
-77 -82 -171 -100 -210 -45 -96 -362 -732 -415 -830 -23 -44 -68 -129 -100
-190 -32 -60 -65 -123 -75 -140 -9 -16 -34 -61 -55 -100 -88 -162 -146 -266
-205 -370 -34 -60 -71 -126 -82 -145 -333 -587 -822 -1357 -1267 -1995 -75
-108 -65 -98 67 61 814 985 1969 1709 3212 2014 222 54 419 92 620 119 361 49
461 55 845 55 346 -1 488 -9 775 -44 41 -5 82 -9 91 -10 11 0 22 21 37 73 11
39 37 127 56 195 81 274 174 670 227 967 6 33 15 80 19 105 21 102 62 405 80
579 6 57 13 108 16 113 3 4 -811 8 -1809 8 l-1815 0 -20 -34z"/>
<path d="M10481 8134 c0 -11 3 -14 6 -6 3 7 2 16 -1 19 -3 4 -6 -2 -5 -13z"/>
<path d="M10666 7547 c3 -10 9 -15 12 -12 3 3 0 11 -7 18 -10 9 -11 8 -5 -6z"/>
<path d="M11016 6777 c3 -10 9 -15 12 -12 3 3 0 11 -7 18 -10 9 -11 8 -5 -6z"/>
<path d="M14080 6296 c0 -4 187 -128 262 -175 l38 -23 -6 34 c-3 18 -13 63
-22 101 l-16 67 -128 0 c-70 0 -128 -2 -128 -4z"/>
<path d="M11370 6200 c12 -16 24 -30 26 -30 3 0 -4 14 -16 30 -12 17 -24 30
-26 30 -3 0 4 -13 16 -30z"/>
<path d="M11420 6126 c0 -2 8 -10 18 -17 15 -13 16 -12 3 4 -13 16 -21 21 -21
13z"/>
<path d="M11485 6040 c10 -11 20 -20 23 -20 3 0 -3 9 -13 20 -10 11 -20 20
-23 20 -3 0 3 -9 13 -20z"/>
<path d="M11560 5940 c17 -22 34 -40 37 -40 2 0 -10 18 -27 40 -17 22 -34 40
-37 40 -2 0 10 -18 27 -40z"/>
<path d="M11615 5870 c10 -11 20 -20 23 -20 3 0 -3 9 -13 20 -10 11 -20 20
-23 20 -3 0 3 -9 13 -20z"/>
<path d="M11680 5790 c23 -27 44 -50 47 -50 3 0 -14 23 -37 50 -23 28 -44 50
-47 50 -3 0 14 -22 37 -50z"/>
<path d="M11775 5675 l47 -55 -1555 0 -1555 0 -63 -67 c-914 -974 -1870 -1721
-2984 -2333 -153 -84 -617 -318 -757 -381 l-78 -35 71 -129 c269 -491 666
-949 1116 -1288 873 -657 1967 -934 3058 -772 1292 191 2433 1018 3023 2190
189 374 316 762 381 1165 43 269 53 414 49 718 l-3 273 -30 23 c-16 13 -42 35
-57 47 -15 13 -59 51 -97 84 -93 80 -494 486 -551 557 -25 32 -49 57 -54 58
-5 0 13 -25 39 -55z"/>
</g>
</svg>
